<svg width="45" height="40" viewBox="0 0 45 40" fill="none" xmlns="http://www.w3.org/2000/svg">
<path d="M35.0607 11.5371H20.394V23.0744H5.72734V8.24072H2.06067V32.9636H5.72734V28.019H38.7273V32.9636H42.394V18.1299C42.394 16.3814 41.6214 14.7045 40.2461 13.4681C38.8708 12.2317 37.0056 11.5371 35.0607 11.5371ZM13.0607 21.4262C14.5194 21.4262 15.9183 20.9053 16.9498 19.978C17.9812 19.0507 18.5607 17.7931 18.5607 16.4817C18.5607 15.1703 17.9812 13.9126 16.9498 12.9853C15.9183 12.058 14.5194 11.5371 13.0607 11.5371C11.602 11.5371 10.203 12.058 9.17158 12.9853C8.14013 13.9126 7.56067 15.1703 7.56067 16.4817C7.56067 17.7931 8.14013 19.0507 9.17158 19.978C10.203 20.9053 11.602 21.4262 13.0607 21.4262Z" fill="black"/>
</svg>
