<svg width="10" height="86" viewBox="0 0 10 86" fill="none" xmlns="http://www.w3.org/2000/svg">
<path d="M0.923401 4.42838C0.923401 5.45555 1.23319 6.36572 1.85278 7.15891C2.47236 7.9521 3.25596 8.46568 4.20356 8.69966V41.9539H6.39033V8.69746C7.33793 8.46347 8.12152 7.94989 8.74111 7.1567C9.36069 6.36352 9.67049 5.45407 9.67049 4.42838C9.67049 3.19224 9.24771 2.14741 8.40216 1.29389C7.55661 0.440371 6.52227 0.0136108 5.29913 0.0136108C4.076 0.0136108 3.04093 0.440371 2.19392 1.29389C1.34691 2.14741 0.923401 3.19224 0.923401 4.42838Z" fill="#394867"/>
<path d="M0.923401 42.0701C0.923401 43.0972 1.23319 44.0074 1.85278 44.8006C2.47236 45.5938 3.25596 46.1074 4.20356 46.3414V79.5956H6.39033V46.3391C7.33793 46.1052 8.12152 45.5916 8.74111 44.7984C9.36069 44.0052 9.67049 43.0958 9.67049 42.0701C9.67049 40.8339 9.24771 39.7891 8.40216 38.9356C7.55661 38.0821 6.52227 37.6553 5.29913 37.6553C4.076 37.6553 3.04093 38.0821 2.19392 38.9356C1.34691 39.7891 0.923401 40.8339 0.923401 42.0701Z" fill="#394867"/>
<path d="M9.44027 80.9316C9.44027 83.2415 7.58523 85.114 5.29691 85.114C3.0086 85.114 1.15356 83.2415 1.15356 80.9316C1.15356 78.6218 3.0086 76.7492 5.29691 76.7492C7.58523 76.7492 9.44027 78.6218 9.44027 80.9316Z" fill="#394867"/>
</svg>
