<svg width="35" height="35" viewBox="0 0 35 35" fill="none" xmlns="http://www.w3.org/2000/svg">
<path d="M17.5 35C27.165 35 35 27.165 35 17.5C35 7.83501 27.165 0 17.5 0C7.83502 0 0 7.83501 0 17.5C0 27.165 7.83502 35 17.5 35Z" fill="#00AED6"/>
<path fill-rule="evenodd" clip-rule="evenodd" d="M27.7087 16.9896C27.5628 14.8021 25.667 13.0521 23.4795 13.198H12.3962C11.9587 13.198 11.667 12.9063 11.667 12.4688C11.667 12.0313 11.9587 11.7396 12.3962 11.7396H23.6253C23.5524 10.2813 22.4587 8.75004 21.0732 8.53129C17.792 7.94795 14.4378 7.94795 11.2295 8.53129C9.40658 8.82295 8.02116 10.6459 7.72949 12.3959C7.21908 15.8229 7.21908 19.3229 7.72949 22.75C8.09408 24.7188 9.69824 26.3229 11.7399 26.6146C15.8232 27.125 19.9066 27.125 23.917 26.6146C25.7399 26.3959 26.9066 24.7188 27.2712 22.9688C27.6357 20.9271 27.7816 18.9584 27.7087 16.9896ZM24.0628 19.3959V20.0521C24.0628 20.4896 23.7712 20.7813 23.3337 20.7813C22.8962 20.7813 22.6045 20.4896 22.6045 20.0521V19.3959C22.3857 19.1771 22.2399 18.8854 22.2399 18.5938C22.2399 18.0104 22.7503 17.5 23.3337 17.5C23.917 17.5 24.4274 18.0104 24.4274 18.5938C24.4274 18.8854 24.2816 19.1771 24.0628 19.3959Z" fill="white"/>
</svg>
