<svg width="35" height="35" viewBox="0 0 35 35" fill="none" xmlns="http://www.w3.org/2000/svg">
<path d="M17.5 35C27.165 35 35 27.165 35 17.5C35 7.83502 27.165 0 17.5 0C7.83502 0 0 7.83502 0 17.5C0 27.165 7.83502 35 17.5 35Z" fill="#008CEB"/>
<path d="M27.6966 17.5737V22.4991C27.6966 22.8195 27.5588 22.8868 27.2896 22.7298C26.9295 22.5137 26.5548 22.3231 26.168 22.1594C25.0001 21.6941 23.735 21.5257 22.486 21.6691C21.1228 21.846 19.7849 22.1815 18.4996 22.6689C17.2178 23.1015 15.9616 23.5694 14.6541 23.9315C13.5712 24.2531 12.4442 24.4013 11.315 24.3705C10.0635 24.322 8.84726 23.9427 7.79 23.2714C7.65716 23.1914 7.54817 23.0773 7.47435 22.9409C7.40052 22.8045 7.36456 22.6509 7.3702 22.4959C7.3702 19.27 7.3702 16.0441 7.3702 12.8182C7.3702 12.6612 7.3702 12.4753 7.5112 12.3952C7.6522 12.3151 7.79641 12.4464 7.91818 12.5266C9.06626 13.3029 10.426 13.7057 11.8117 13.6802C12.8025 13.6396 13.7824 13.4572 14.7214 13.1386C16.0545 12.7252 17.3427 12.1773 18.6534 11.7126C19.6736 11.3205 20.7197 10.9993 21.7842 10.7512C22.6978 10.5373 23.6458 10.5148 24.5685 10.6853C25.4911 10.8557 26.3685 11.2153 27.1454 11.7414C27.3235 11.8506 27.4694 12.0052 27.5679 12.1893C27.6665 12.3735 27.7142 12.5806 27.7062 12.7893C27.7062 14.3916 27.7062 15.9939 27.7062 17.5961L27.6966 17.5737Z" fill="#FEFEFE"/>
</svg>
