<svg width="30" height="30" viewBox="0 0 30 30" fill="none" xmlns="http://www.w3.org/2000/svg">
<path d="M26.25 15V5.625C26.25 5.12772 26.0525 4.65081 25.7008 4.29917C25.3492 3.94754 24.8723 3.75 24.375 3.75H5.625C5.12772 3.75 4.65081 3.94754 4.29917 4.29917C3.94754 4.65081 3.75 5.12772 3.75 5.625V24.375C3.75 24.8723 3.94754 25.3492 4.29917 25.7008C4.65081 26.0525 5.12772 26.25 5.625 26.25H15" stroke="#1E1E1E" stroke-width="2.91667" stroke-linecap="round" stroke-linejoin="round"/>
<path d="M20 23.75C22.0711 23.75 23.75 22.0711 23.75 20C23.75 17.9289 22.0711 16.25 20 16.25C17.9289 16.25 16.25 17.9289 16.25 20C16.25 22.0711 17.9289 23.75 20 23.75Z" stroke="#1E1E1E" stroke-width="2.91667"/>
<path d="M23.125 22.5L26.25 25M8.75 10H21.25M8.75 15H13.75" stroke="#1E1E1E" stroke-width="2.91667" stroke-linecap="round" stroke-linejoin="round"/>
</svg>
