<svg width="23" height="28" viewBox="0 0 23 28" fill="none" xmlns="http://www.w3.org/2000/svg">
<path d="M11.5 9.42335e-08C11.1829 -9.23077e-05 10.8694 0.0677707 10.5803 0.199085C10.2912 0.330399 10.0331 0.522161 9.82323 0.761642C9.61332 1.00112 9.45638 1.28285 9.36281 1.58811C9.26923 1.89338 9.24118 2.2152 9.2805 2.53223C7.35632 3.02881 5.65094 4.15656 4.43329 5.73764C3.21564 7.31872 2.55501 9.26317 2.55556 11.2644V20.2759H1.27778C0.93889 20.2759 0.613882 20.4115 0.374252 20.6529C0.134623 20.8943 0 21.2218 0 21.5632C0 21.9046 0.134623 22.2321 0.374252 22.4735C0.613882 22.7149 0.93889 22.8506 1.27778 22.8506H21.7222C22.0611 22.8506 22.3861 22.7149 22.6257 22.4735C22.8654 22.2321 23 21.9046 23 21.5632C23 21.2218 22.8654 20.8943 22.6257 20.6529C22.3861 20.4115 22.0611 20.2759 21.7222 20.2759H20.4444V11.2644C20.445 9.26317 19.7844 7.31872 18.5667 5.73764C17.3491 4.15656 15.6437 3.02881 13.7195 2.53223C13.7297 2.44126 13.7353 2.34814 13.7361 2.25287C13.7361 1.65537 13.5005 1.08235 13.0812 0.659851C12.6618 0.237356 12.0931 9.42335e-08 11.5 9.42335e-08ZM11.5 28C10.4833 28 9.50831 27.5931 8.78942 26.8688C8.07053 26.1445 7.66667 25.1622 7.66667 24.1379H15.3333C15.3333 25.1622 14.9295 26.1445 14.2106 26.8688C13.4917 27.5931 12.5167 28 11.5 28Z" fill="#1E1E1E"/>
</svg>
