<svg width="32" height="32" viewBox="0 0 32 32" fill="none" xmlns="http://www.w3.org/2000/svg">
<path d="M7.29302 8.38542C7.29302 6.16147 8.17648 4.0286 9.74905 2.45603C11.3216 0.883461 13.4545 0 15.6784 0C17.9024 0 20.0353 0.883461 21.6078 2.45603C23.1804 4.0286 24.0639 6.16147 24.0639 8.38542C24.0639 10.6094 23.1804 12.7422 21.6078 14.3148C20.0353 15.8874 17.9024 16.7708 15.6784 16.7708C13.4545 16.7708 11.3216 15.8874 9.74905 14.3148C8.17648 12.7422 7.29302 10.6094 7.29302 8.38542ZM15.3839 18.9744C15.4466 18.9649 15.51 18.9595 15.5734 18.9583H15.7834C15.8476 18.9583 15.9108 18.9637 15.973 18.9744L26.6116 20.8454L26.667 20.8571C28.627 21.3092 30.7328 22.5531 31.1426 24.9696L31.1484 25.0119L31.3147 26.2908V26.2938C31.6997 29.2235 29.3766 31.3542 26.6334 31.3542C26.5729 31.3531 26.5125 31.3482 26.4526 31.3396H4.72344C1.98031 31.3396 -0.344271 29.2075 0.0421872 26.2763L0.208437 25.009L0.215729 24.9652C0.624062 22.5925 2.7474 21.2785 4.70302 20.8542L4.74531 20.8454L15.3839 18.9744Z" fill="black"/>
</svg>
