<svg width="30" height="32" viewBox="0 0 30 32" fill="none" xmlns="http://www.w3.org/2000/svg">
<path d="M23.9025 15.6891V7.13204C23.9026 7.02398 23.8814 6.91697 23.84 6.81714C23.7987 6.7173 23.738 6.62661 23.6616 6.55025L19.3523 2.24093C19.1984 2.08685 18.9896 2.00019 18.7719 2H2.82134C2.60351 2 2.3946 2.08653 2.24057 2.24057C2.08653 2.3946 2 2.60351 2 2.82134V28.5568C2 28.7746 2.08653 28.9836 2.24057 29.1376C2.3946 29.2916 2.60351 29.3782 2.82134 29.3782H14.3202M7.47563 12.9513H18.4269M7.47563 7.47563H12.9513M7.47563 18.4269H11.5824" stroke="black" stroke-width="2.1875" stroke-linecap="round" stroke-linejoin="round"/>
<path d="M18.4268 2V6.65429C18.4268 6.87212 18.5133 7.08103 18.6673 7.23506C18.8214 7.3891 19.0303 7.47563 19.2481 7.47563H23.9024M23.8914 19.9669L27.3904 20.8553C27.7545 20.9484 28.0105 21.2797 27.9995 21.6548C27.7641 29.5369 23.2179 30.7471 23.2179 30.7471C23.2179 30.7471 18.6718 29.5369 18.4363 21.6548C18.4326 21.4723 18.4908 21.2939 18.6014 21.1488C18.712 21.0036 18.8686 20.9002 19.0455 20.8553L22.5444 19.9669C22.9866 19.8547 23.4493 19.8547 23.8914 19.9669Z" stroke="black" stroke-width="2.1875" stroke-linecap="round" stroke-linejoin="round"/>
</svg>
