<svg width="30" height="30" viewBox="0 0 30 30" fill="none" xmlns="http://www.w3.org/2000/svg">
<path d="M6.9775 8.02326C6.9775 5.89536 7.82274 3.85461 9.32727 2.34996C10.8318 0.845305 12.8724 0 15.0001 0C17.1279 0 19.1685 0.845305 20.673 2.34996C22.1775 3.85461 23.0228 5.89536 23.0228 8.02326C23.0228 10.1512 22.1775 12.1919 20.673 13.6966C19.1685 15.2012 17.1279 16.0465 15.0001 16.0465C12.8724 16.0465 10.8318 15.2012 9.32727 13.6966C7.82274 12.1919 6.9775 10.1512 6.9775 8.02326ZM14.7183 18.1549C14.7784 18.1458 14.8389 18.1407 14.8997 18.1395H15.1006C15.162 18.1395 15.2224 18.1446 15.282 18.1549L25.4603 19.9451L25.5133 19.9563C27.3885 20.3888 29.4032 21.5791 29.7953 23.8912L29.8008 23.9316L29.9599 25.1553V25.1581C30.3282 27.9614 28.1056 30 25.4812 30C25.4233 29.9989 25.3655 29.9943 25.3082 29.986H4.51908C1.89464 29.986 -0.329377 27.946 0.040362 25.1414L0.199419 23.9288L0.206396 23.887C0.597063 21.6167 2.62853 20.3595 4.49955 19.9535L4.54001 19.9451L14.7183 18.1549Z" fill="black"/>
</svg>
