<svg width="35" height="35" viewBox="0 0 35 35" fill="none" xmlns="http://www.w3.org/2000/svg">
<path d="M26.2498 24.0625L30.6248 2.91666C30.6248 2.91666 22.9686 4.375 22.9686 7.29166C22.9686 9.11458 25.8853 10.2083 24.7915 11.3021C23.6978 12.3958 19.6873 13.4896 19.6873 16.4062C19.6873 18.2292 20.8832 19.5854 19.6873 20.7812C18.5936 21.875 17.4998 21.3019 15.6769 20.7812C13.6353 20.1979 9.479 19.6875 8.02067 20.0521C6.56234 20.4167 5.104 21.1458 5.104 23.3333C5.104 24.5365 5.83317 25.8854 7.65609 26.25C9.479 26.6146 11.6665 24.7917 14.5832 24.7917C17.4998 24.7917 21.1457 26.9792 23.3332 26.9792C25.5207 26.9792 26.2498 24.0625 26.2498 24.0625Z" fill="black" stroke="black" stroke-width="2.91667" stroke-linejoin="round"/>
<path d="M8.02051 26.25L5.83301 32.0833H29.8955L25.5205 26.25" stroke="black" stroke-width="2.91667" stroke-linejoin="round"/>
</svg>
