<svg width="46" height="46" viewBox="0 0 46 46" fill="none" xmlns="http://www.w3.org/2000/svg">
<path d="M39.7039 22.0011C40.5902 22.6067 41.3804 23.2936 42.0747 24.0617C42.7689 24.8297 43.3671 25.6717 43.8693 26.5875C44.3715 27.5033 44.7408 28.4707 44.9771 29.4899C45.2135 30.5091 45.3464 31.5505 45.3759 32.614C45.3759 34.3717 45.0436 36.026 44.3789 37.577C43.7142 39.1279 42.7984 40.4794 41.6315 41.6315C40.4646 42.7837 39.1131 43.6921 37.577 44.3568C36.0408 45.0214 34.3865 45.3612 32.614 45.3759C31.2698 45.3759 29.97 45.1765 28.7145 44.7777C27.4589 44.3789 26.3068 43.8028 25.2581 43.0495C24.2094 42.2962 23.2788 41.3952 22.4664 40.3465C21.654 39.2977 21.0263 38.1382 20.5831 36.868H2.836V2.836H8.50799V0H11.344V2.836H31.196V0H34.032V2.836H39.7039V22.0011ZM5.67199 5.67199V11.344H36.868V5.67199H34.032V8.50799H31.196V5.67199H11.344V8.50799H8.50799V5.67199H5.67199ZM19.9184 34.032C19.8741 33.5741 19.852 33.1014 19.852 32.614C19.852 30.8562 20.1843 29.2019 20.849 27.651C21.5137 26.1 22.4295 24.7485 23.5964 23.5964C24.7633 22.4443 26.1148 21.5358 27.651 20.8712C29.1871 20.2065 30.8415 19.8667 32.614 19.852C34.091 19.852 35.509 20.0957 36.868 20.5831V14.18H5.67199V34.032H19.9184ZM32.614 42.5399C33.9876 42.5399 35.2727 42.2815 36.4691 41.7645C37.6656 41.2475 38.7143 40.5385 39.6153 39.6375C40.5163 38.7365 41.2253 37.6877 41.7423 36.4913C42.2593 35.2949 42.5252 34.0024 42.5399 32.614C42.5399 31.2403 42.2815 29.9552 41.7645 28.7588C41.2475 27.5623 40.5385 26.5136 39.6375 25.6126C38.7365 24.7116 37.6877 24.0026 36.4913 23.4856C35.2949 22.9686 34.0024 22.7027 32.614 22.688C31.2403 22.688 29.9552 22.9465 28.7588 23.4634C27.5623 23.9804 26.5136 24.6894 25.6126 25.5904C24.7116 26.4915 24.0026 27.5402 23.4856 28.7366C22.9686 29.9331 22.7027 31.2255 22.688 32.614C22.688 33.9876 22.9465 35.2727 23.4634 36.4691C23.9804 37.6656 24.6894 38.7143 25.5904 39.6153C26.4915 40.5163 27.5402 41.2253 28.7366 41.7423C29.9331 42.2593 31.2255 42.5252 32.614 42.5399ZM34.032 31.196H38.2859V34.032H31.196V25.524H34.032V31.196Z" fill="black"/>
</svg>
