<svg width="46" height="46" viewBox="0 0 46 46" fill="none" xmlns="http://www.w3.org/2000/svg">
<path d="M36.6667 17.4167V13.5833C36.6667 12.5667 36.2628 11.5916 35.5439 10.8728C34.825 10.1539 33.85 9.75 32.8333 9.75H30.9167V4H27.0833V9.75H25.1667C24.15 9.75 23.175 10.1539 22.4561 10.8728C21.7372 11.5916 21.3333 12.5667 21.3333 13.5833V17.4167C20.3167 17.4167 19.3416 17.8205 18.6228 18.5394C17.9039 19.2583 17.5 20.2333 17.5 21.25V23.1667H9.83333C8.81667 23.1667 7.84165 23.5705 7.12276 24.2894C6.40387 25.0083 6 25.9833 6 27V42.3333H11.75V38.5H15.5833V42.3333H23.25V38.5H27.0833V42.3333H30.9167V38.5H34.75V42.3333H40.5V21.25C40.5 20.2333 40.0961 19.2583 39.3772 18.5394C38.6584 17.8205 37.6833 17.4167 36.6667 17.4167ZM15.5833 34.6667H11.75V30.8333H15.5833V34.6667ZM27.0833 34.6667H23.25V30.8333H27.0833V34.6667ZM27.0833 27H23.25V23.1667H27.0833V27ZM25.1667 17.4167V13.5833H32.8333V17.4167H25.1667ZM34.75 34.6667H30.9167V30.8333H34.75V34.6667ZM34.75 27H30.9167V23.1667H34.75V27Z" fill="black"/>
</svg>
