<svg width="47" height="47" viewBox="0 0 47 47" fill="none" xmlns="http://www.w3.org/2000/svg">
<path d="M23.3553 35.033C23.3553 28.5908 28.5907 23.3553 35.0329 23.3553C37.1543 23.3553 39.159 23.9392 40.8717 24.9318V23.3553L36.8235 11.6777C36.4342 10.5489 35.3443 9.73145 34.0598 9.73145H12.6508C11.3662 9.73145 10.2763 10.5489 9.88706 11.6777L5.83881 23.3553V38.9255C5.83881 39.996 6.71464 40.8718 7.78509 40.8718H9.73136C10.8018 40.8718 11.6776 39.996 11.6776 38.9255V36.9793H23.5304C23.4331 36.337 23.3553 35.6947 23.3553 35.033ZM12.6508 12.6509H34.0598L36.9792 21.4091H9.73136L12.6508 12.6509ZM12.6508 31.1404C11.0354 31.1404 9.73136 29.8364 9.73136 28.221C9.73136 26.6056 11.0354 25.3016 12.6508 25.3016C14.2662 25.3016 15.5702 26.6056 15.5702 28.221C15.5702 29.8364 14.2662 31.1404 12.6508 31.1404ZM36.9792 40.8718V36.9793H29.1941V33.0867H36.9792V29.1942L42.818 35.033L36.9792 40.8718Z" fill="black"/>
</svg>
