<svg width="47" height="47" viewBox="0 0 47 47" fill="none" xmlns="http://www.w3.org/2000/svg">
<path d="M17.5164 36.9792H29.1941V40.8717H17.5164C12.1447 40.8717 7.78509 36.5121 7.78509 31.1404V13.6239H11.6776V31.1404C11.6776 34.3712 14.2856 36.9792 17.5164 36.9792ZM20.2802 10.5293C21.7982 9.01124 21.7982 6.53947 20.2802 5.02138C18.7621 3.50329 16.2903 3.50329 14.7722 5.02138C13.2541 6.53947 13.2541 9.01124 14.7722 10.5293C16.2903 12.0669 18.7426 12.0669 20.2802 10.5293ZM22.3821 17.5164C22.3821 15.3755 20.6305 13.6239 18.4896 13.6239H17.5164C15.3755 13.6239 13.6239 15.3755 13.6239 17.5164V29.1941C13.6239 32.4249 16.2319 35.0329 19.4627 35.0329H29.3303L36.1423 41.8448L38.9254 39.0617L29.0578 29.1941H22.3821V17.5164Z" fill="black"/>
</svg>
