<svg width="41" height="41" viewBox="0 0 41 41" fill="none" xmlns="http://www.w3.org/2000/svg">
<path d="M5.01599 18.8333L9.16256 9.18663C9.42059 8.58663 9.84968 8.07536 10.3966 7.71626C10.9435 7.35716 11.5842 7.16605 12.239 7.16663H27.8923C28.5467 7.1667 29.1866 7.35812 29.7329 7.71718C30.2791 8.07623 30.7077 8.58715 30.9655 9.18663L35.1121 18.8333M5.01599 18.8333H35.1121M5.01599 18.8333V30.5M35.1121 18.8333V30.5M5.01599 30.5V31.3333C5.01599 31.9963 5.28023 32.6322 5.75057 33.1011C6.22091 33.5699 6.85883 33.8333 7.524 33.8333C8.18916 33.8333 8.82708 33.5699 9.29743 33.1011C9.76777 32.6322 10.032 31.9963 10.032 31.3333V30.5M5.01599 30.5H10.032M35.1121 30.5V31.3333C35.1121 31.9963 34.8478 32.6322 34.3775 33.1011C33.9071 33.5699 33.2692 33.8333 32.6041 33.8333C31.9389 33.8333 31.301 33.5699 30.8306 33.1011C30.3603 32.6322 30.096 31.9963 30.096 31.3333V30.5M35.1121 30.5H30.096M30.096 30.5H10.032" stroke="#394867" stroke-width="2.91667" stroke-linecap="round" stroke-linejoin="round"/>
<path fill-rule="evenodd" clip-rule="evenodd" d="M5.01599 18.8333H35.1121V30.4999H5.01599V18.8333ZM10.032 23.8333C10.032 23.3912 10.2082 22.9673 10.5217 22.6547C10.8353 22.3422 11.2606 22.1666 11.704 22.1666C12.1474 22.1666 12.5744 22.3422 12.888 22.6547C13.2015 22.9673 13.3777 23.3912 13.3777 23.8333C13.3777 24.2753 13.2015 24.6992 12.888 25.0118C12.5744 25.3243 12.1491 25.4999 11.7057 25.4999C11.2622 25.4999 10.8353 25.3243 10.5217 25.0118C10.2082 24.6992 10.032 24.2753 10.032 23.8333ZM28.424 22.1666C27.9806 22.1666 27.5553 22.3422 27.2418 22.6547C26.9282 22.9673 26.752 23.3912 26.752 23.8333C26.752 24.2753 26.9282 24.6992 27.2418 25.0118C27.5553 25.3243 27.9806 25.4999 28.424 25.4999C28.8675 25.4999 29.2944 25.3243 29.608 25.0118C29.9216 24.6992 30.0977 24.2753 30.0977 23.8333C30.0977 23.3912 29.9216 22.9673 29.608 22.6547C29.2944 22.3422 28.8675 22.1666 28.424 22.1666Z" fill="#394867"/>
</svg>
