<svg width="56" height="57" viewBox="0 0 56 57" fill="none" xmlns="http://www.w3.org/2000/svg">
<rect x="0.716797" y="0.700439" width="55.2448" height="55.7655" rx="8" fill="#394867"/>
<path d="M12.8018 26.8405L17.0832 16.754C17.3496 16.1266 17.7927 15.592 18.3574 15.2165C18.9221 14.8411 19.5836 14.6412 20.2598 14.6418H36.4223C37.098 14.6419 37.7587 14.8421 38.3227 15.2175C38.8868 15.5929 39.3293 16.1271 39.5955 16.754L43.8769 26.8405M12.8018 26.8405H43.8769M12.8018 26.8405V39.0392M43.8769 26.8405V39.0392M12.8018 39.0392V39.9106C12.8018 40.6039 13.0746 41.2687 13.5602 41.759C14.0459 42.2492 14.7046 42.5246 15.3914 42.5246C16.0782 42.5246 16.7368 42.2492 17.2225 41.759C17.7081 41.2687 17.981 40.6039 17.981 39.9106V39.0392M12.8018 39.0392H17.981M43.8769 39.0392V39.9106C43.8769 40.6039 43.6041 41.2687 43.1185 41.759C42.6328 42.2492 41.9741 42.5246 41.2873 42.5246C40.6005 42.5246 39.9419 42.2492 39.4562 41.759C38.9706 41.2687 38.6977 40.6039 38.6977 39.9106V39.0392M43.8769 39.0392H38.6977M38.6977 39.0392H17.981" stroke="white" stroke-width="2.91667" stroke-linecap="round" stroke-linejoin="round"/>
<path fill-rule="evenodd" clip-rule="evenodd" d="M12.8018 26.8406H43.8769V39.0393H12.8018V26.8406ZM17.981 32.0686C17.981 31.6064 18.1628 31.1631 18.4866 30.8363C18.8104 30.5095 19.2495 30.3259 19.7074 30.3259C20.1652 30.3259 20.6061 30.5095 20.9298 30.8363C21.2536 31.1631 21.4355 31.6064 21.4355 32.0686C21.4355 32.5308 21.2536 32.974 20.9298 33.3008C20.6061 33.6277 20.1669 33.8113 19.7091 33.8113C19.2512 33.8113 18.8104 33.6277 18.4866 33.3008C18.1628 32.974 17.981 32.5308 17.981 32.0686ZM36.9713 30.3259C36.5135 30.3259 36.0744 30.5095 35.7506 30.8363C35.4268 31.1631 35.2449 31.6064 35.2449 32.0686C35.2449 32.5308 35.4268 32.974 35.7506 33.3008C36.0744 33.6277 36.5135 33.8113 36.9713 33.8113C37.4292 33.8113 37.8701 33.6277 38.1938 33.3008C38.5176 32.974 38.6995 32.5308 38.6995 32.0686C38.6995 31.6064 38.5176 31.1631 38.1938 30.8363C37.8701 30.5095 37.4292 30.3259 36.9713 30.3259Z" fill="white"/>
</svg>
