<svg width="119" height="110" viewBox="0 0 119 110" fill="none" xmlns="http://www.w3.org/2000/svg">
<path d="M37.6317 94.0789C36.3623 94.0789 35.2983 93.6496 34.4397 92.7909C33.581 91.9322 33.1517 90.8683 33.1517 89.5989V80.415C31.8077 78.9217 30.7251 77.2604 29.9037 75.4311C29.0824 73.6018 28.6718 71.6045 28.6718 69.4392V26.8796C28.6718 20.6824 31.5464 16.1464 37.2957 13.2718C43.0449 10.3972 52.1168 8.95984 64.5114 8.95984C77.3539 8.95984 86.5378 10.3412 92.063 13.1038C97.5883 15.8664 100.351 20.4584 100.351 26.8796V69.4392C100.351 71.6045 99.9403 73.6018 99.119 75.4311C98.2976 77.2604 97.215 78.9217 95.871 80.415V89.5989C95.871 90.8683 95.4417 91.9322 94.583 92.7909C93.7244 93.6496 92.6604 94.0789 91.3911 94.0789H86.9111C85.6418 94.0789 84.5778 93.6496 83.7191 92.7909C82.8605 91.9322 82.4312 90.8683 82.4312 89.5989V85.119H46.5916V89.5989C46.5916 90.8683 46.1622 91.9322 45.3036 92.7909C44.4449 93.6496 43.3809 94.0789 42.1116 94.0789H37.6317ZM37.6317 44.7994H91.3911V31.3596H37.6317V44.7994ZM48.8315 71.6791C50.6982 71.6791 52.2848 71.0258 53.5915 69.7192C54.8981 68.4125 55.5515 66.8259 55.5515 64.9592C55.5515 63.0926 54.8981 61.5059 53.5915 60.1993C52.2848 58.8926 50.6982 58.2393 48.8315 58.2393C46.9649 58.2393 45.3782 58.8926 44.0716 60.1993C42.7649 61.5059 42.1116 63.0926 42.1116 64.9592C42.1116 66.8259 42.7649 68.4125 44.0716 69.7192C45.3782 71.0258 46.9649 71.6791 48.8315 71.6791ZM80.1912 71.6791C82.0578 71.6791 83.6445 71.0258 84.9511 69.7192C86.2578 68.4125 86.9111 66.8259 86.9111 64.9592C86.9111 63.0926 86.2578 61.5059 84.9511 60.1993C83.6445 58.8926 82.0578 58.2393 80.1912 58.2393C78.3245 58.2393 76.7379 58.8926 75.4312 60.1993C74.1246 61.5059 73.4713 63.0926 73.4713 64.9592C73.4713 66.8259 74.1246 68.4125 75.4312 69.7192C76.7379 71.0258 78.3245 71.6791 80.1912 71.6791ZM39.6476 22.3997H89.8231C88.7031 21.1304 86.2951 20.0664 82.5992 19.2077C78.9032 18.3491 72.9486 17.9197 64.7354 17.9197C56.7461 17.9197 50.9035 18.3864 47.2075 19.3197C43.5116 20.253 40.9916 21.2797 39.6476 22.3997ZM46.5916 76.1591H82.4312C84.8951 76.1591 87.0044 75.2818 88.7591 73.5271C90.5137 71.7725 91.3911 69.6632 91.3911 67.1992V53.7593H37.6317V67.1992C37.6317 69.6632 38.509 71.7725 40.2636 73.5271C42.0183 75.2818 44.1276 76.1591 46.5916 76.1591Z" fill="#1D1B20"/>
<path d="M51.5539 81.8796C51.5539 94.8208 41.0615 105.313 28.1203 105.313C15.1791 105.313 4.68671 94.8208 4.68671 81.8796C4.68671 68.9384 15.1791 58.446 28.1203 58.446C41.0615 58.446 51.5539 68.9384 51.5539 81.8796Z" fill="#F44336"/>
<path d="M34.7473 71.9391L38.0608 75.2526L21.4933 91.8201L18.1797 88.5066L34.7473 71.9391Z" fill="white"/>
<path d="M38.0608 88.5066L34.7473 91.8201L18.1797 75.2526L21.4933 71.9391L38.0608 88.5066Z" fill="white"/>
</svg>
