<svg width="26" height="26" viewBox="0 0 26 26" fill="none" xmlns="http://www.w3.org/2000/svg">
<path fill-rule="evenodd" clip-rule="evenodd" d="M13 0C5.82032 0 0 5.82026 0 13C0 20.1796 5.82032 26 13 26C20.1797 26 26 20.1797 26 13C26 5.82026 20.1797 0 13 0ZM13 23.4C7.26545 23.4 2.60002 18.7345 2.60002 13C2.60002 7.26539 7.26539 2.60002 13 2.60002C18.7346 2.60002 23.4 7.26539 23.4 13C23.4 18.7345 18.7346 23.4 13 23.4ZM14.6279 7.79999C14.6279 8.74257 13.9416 9.42501 13.0132 9.42501C12.0473 9.42501 11.3778 8.74251 11.3778 7.78196C11.3778 6.85875 12.0654 6.17504 13.0132 6.17504C13.9416 6.17504 14.6279 6.85875 14.6279 7.79999ZM11.7029 11.7H14.3028V19.5H11.7029V11.7Z" fill="#1E1E1E"/>
</svg>
