<svg width="37" height="29" viewBox="0 0 37 29" fill="none" xmlns="http://www.w3.org/2000/svg">
<path d="M24.1281 1.66663V5.33329M24.1281 12.6666V16.3333M24.1281 23.6666V27.3333M5.79478 1.66663H31.4614C32.4339 1.66663 33.3665 2.05293 34.0542 2.74057C34.7418 3.4282 35.1281 4.36083 35.1281 5.33329V10.8333C34.1557 10.8333 33.223 11.2196 32.5354 11.9072C31.8478 12.5949 31.4614 13.5275 31.4614 14.5C31.4614 15.4724 31.8478 16.4051 32.5354 17.0927C33.223 17.7803 34.1557 18.1666 35.1281 18.1666V23.6666C35.1281 24.6391 34.7418 25.5717 34.0542 26.2594C33.3665 26.947 32.4339 27.3333 31.4614 27.3333H5.79478C4.82232 27.3333 3.88969 26.947 3.20205 26.2594C2.51442 25.5717 2.12811 24.6391 2.12811 23.6666V18.1666C3.10057 18.1666 4.0332 17.7803 4.72084 17.0927C5.40847 16.4051 5.79478 15.4724 5.79478 14.5C5.79478 13.5275 5.40847 12.5949 4.72084 11.9072C4.0332 11.2196 3.10057 10.8333 2.12811 10.8333V5.33329C2.12811 4.36083 2.51442 3.4282 3.20205 2.74057C3.88969 2.05293 4.82232 1.66663 5.79478 1.66663Z" stroke="white" stroke-width="2.91667" stroke-linecap="round" stroke-linejoin="round"/>
</svg>
