<?xml version="1.0" encoding="UTF-8" standalone="no"?>
<!-- Created with Inkscape (http://www.inkscape.org/) -->

<svg
   width="48.254852mm"
   height="22.853321mm"
   viewBox="0 0 48.254852 22.853321"
   version="1.1"
   id="svg1"
   xml:space="preserve"
   xmlns:inkscape="http://www.inkscape.org/namespaces/inkscape"
   xmlns:sodipodi="http://sodipodi.sourceforge.net/DTD/sodipodi-0.dtd"
   xmlns="http://www.w3.org/2000/svg"
   xmlns:svg="http://www.w3.org/2000/svg"><sodipodi:namedview
     id="namedview1"
     pagecolor="#ffffff"
     bordercolor="#999999"
     borderopacity="1"
     inkscape:showpageshadow="2"
     inkscape:pageopacity="0"
     inkscape:pagecheckerboard="0"
     inkscape:deskcolor="#d1d1d1"
     inkscape:document-units="mm" /><defs
     id="defs1" /><g
     inkscape:groupmode="layer"
     id="layer2"
     inkscape:label="Layer 2"
     transform="translate(-74.977205,-112.98821)"><g
       id="g53"
       transform="translate(-8.0697916,-60.23539)"
       inkscape:export-filename="tripinlogo.svg"
       inkscape:export-xdpi="600"
       inkscape:export-ydpi="600"><path
         id="path51"
         style="fill:#0e2634;fill-opacity:1;stroke-width:0.7;stroke-dashoffset:49133.9;paint-order:fill markers stroke"
         d="m 126.94729,183.23998 c -0.88636,0.007 -1.75486,0.302 -2.51458,0.85421 l -0.13074,-0.0191 -0.62942,-0.6289 h -1.96629 v 8.9271 h 2.55644 0.0393 v -4.7625 c 0.002,-0.025 0.004,-0.05 0.007,-0.0749 0.0872,-0.42439 0.28591,-0.81788 0.57567,-1.13998 0.45976,-0.5218 1.12046,-0.82245 1.81591,-0.82631 0.6996,4.7e-4 1.36529,0.30141 1.8278,0.82631 0.39298,0.44519 0.60998,1.01848 0.6103,1.6123 v 4.40438 h 2.16317 c -0.002,-0.0503 -0.0446,-5.66394 -0.16536,-6.04975 -0.1567,-0.50046 -0.40238,-1.01755 -0.72709,-1.39517 -0.92209,-1.10273 -2.16553,-1.72315 -3.46232,-1.72754 z"
         sodipodi:nodetypes="ccccccccccccccccsccc" /><path
         id="path7"
         style="fill:#0e2634;fill-opacity:1;stroke-width:0.7;stroke-dashoffset:49133.9;paint-order:fill markers stroke"
         d="m 87.372833,179.32907 c -0.769069,0 -1.291407,-0.002 -1.798339,0.39532 -0.505533,0.40034 -0.752444,0.92185 -0.715202,1.58699 h -0.0031 v 1.44125 H 83.047 v 2.24173 h 1.809192 v 2.05465 c -9e-6,0.26278 0.02367,0.52201 0.06563,0.7767 0.219513,1.33232 0.996558,2.52066 2.186947,3.20807 0.777271,0.44476 1.667814,0.65209 2.561601,0.59635 l 0.0098,-2.38849 c -0.998908,0.16794 -2.307192,-0.77525 -2.307353,-2.17713 v -2.07015 h 2.399337 v -2.24173 h -2.399337 z" /><path
         d="m 96.059906,183.00421 c -1.054808,0.0455 -1.732889,0.6021 -1.732889,0.6021 l -0.569991,-0.57051 h -1.821594 l -0.08372,8.60309 h 2.173709 l 0.05562,-4.50463 c -5e-5,-1.2441 1.08323,-2.25265 2.41949,-2.25258 0.433977,3.8e-4 0.818142,0.033 1.246904,0.12803 l 0.0077,-1.82786 c -0.332777,-0.10161 -1.221366,-0.19804 -1.695231,-0.17764 z"
         style="fill:#0e2634;fill-opacity:1;stroke-width:0.7;stroke-dashoffset:49133.9;paint-order:fill markers stroke"
         id="path18"
         sodipodi:nodetypes="cccccccccccc" /><rect
         style="fill:#0e2634;fill-opacity:1;stroke-width:0.7;stroke-dashoffset:49133.9;paint-order:fill markers stroke"
         id="rect18"
         width="2.5956037"
         height="8.5340309"
         x="99.676163"
         y="183.0524" /><rect
         style="fill:#0e2634;fill-opacity:1;stroke-width:0.7;stroke-dashoffset:49133.9;paint-order:fill markers stroke"
         id="rect18-2"
         width="2.5956037"
         height="8.5340309"
         x="116.80019"
         y="183.49667" /><path
         id="path42"
         style="fill:#0e2634;fill-opacity:1;stroke-width:0.7;stroke-dashoffset:49133.9;paint-order:fill markers stroke"
         d="m 104.78656,182.93453 v 13.01471 h 0.96273 c 0.7703,0 1.39061,-0.62031 1.39061,-1.39061 v -2.77606 a 4.8943172,4.7830825 0 0 0 2.65256,0.7643 4.8943172,4.7830825 0 0 0 4.89427,-4.78318 4.8943172,4.7830825 0 0 0 -4.89427,-4.78317 4.8943172,4.7830825 0 0 0 -2.74919,0.8351 c -0.20268,-0.5165 -0.70397,-0.88109 -1.29398,-0.88109 z m 5.0059,2.5492 a 2.2803068,2.2803068 0 0 1 2.28048,2.27996 2.2803068,2.2803068 0 0 1 -2.28048,2.28049 2.2803068,2.2803068 0 0 1 -2.28048,-2.28049 2.2803068,2.2803068 0 0 1 2.28048,-2.27996 z" /><text
         xml:space="preserve"
         style="font-size:2.11667px;font-family:Gabriola;-inkscape-font-specification:'Gabriola, Normal';text-align:center;text-anchor:middle;fill:#0e2634;fill-opacity:1;stroke-width:0.7;stroke-dashoffset:49133.9;paint-order:fill markers stroke"
         x="114.99453"
         y="196.05624"
         id="text52"><tspan
           sodipodi:role="line"
           id="tspan52"
           style="font-style:normal;font-variant:normal;font-weight:normal;font-stretch:normal;font-size:2.11667px;font-family:'Cascadia Code';-inkscape-font-specification:'Cascadia Code, @wght=478';font-variant-ligatures:normal;font-variant-caps:normal;font-variant-numeric:normal;font-variant-east-asian:normal;font-variation-settings:'wght' 478;stroke-width:0.7"
           x="114.99453"
           y="196.05624">SHUTTLE BUS</tspan></text><path
         style="font-variation-settings:'wght' 478;fill:#e77d29;fill-opacity:1;stroke-width:0.7;stroke-dashoffset:49133.9;paint-order:fill markers stroke"
         d="m 118.38107,182.14958 c 0,0 -0.26855,-4.79561 0.99219,-6.64765 0.85048,-1.24935 2.41946,-2.15441 3.92661,-2.26704 1.27893,-0.0956 2.7627,0.41958 3.58094,1.40714 0.83044,1.00229 1.05299,2.57617 0.7276,3.83646 -0.35816,1.3872 -1.51518,2.57242 -2.74505,3.30729 -1.05233,0.62879 -2.77677,0.68263 -3.60495,0.72761 -0.96533,0.0524 -2.87734,-0.36381 -2.87734,-0.36381 z"
         id="path52"
         sodipodi:nodetypes="caaaaasc" /><path
         style="font-variation-settings:'wght' 478;display:inline;fill:#f9f9f9;fill-opacity:1;stroke-width:0.7;stroke-dashoffset:49133.9;paint-order:fill markers stroke"
         d="m 118.37447,182.14958 c 0,0 0.26855,-4.79561 -0.99219,-6.64765 -0.85048,-1.24935 -2.41946,-2.15441 -3.92661,-2.26704 -1.27893,-0.0956 -2.7627,0.41958 -3.58094,1.40714 -0.83044,1.00229 -1.05299,2.57617 -0.7276,3.83646 0.35816,1.3872 1.51518,2.57242 2.74505,3.30729 1.05233,0.62879 2.77677,0.68263 3.60495,0.72761 0.96533,0.0524 2.87734,-0.36381 2.87734,-0.36381 z"
         id="path53"
         sodipodi:nodetypes="caaaaasc" /></g></g></svg>
