<svg width="36" height="35" viewBox="0 0 36 35" fill="none" xmlns="http://www.w3.org/2000/svg">
<path d="M9.24267 10.2083C9.24267 7.98434 10.1261 5.85148 11.6987 4.27891C13.2713 2.70634 15.4041 1.82288 17.6281 1.82288C19.852 1.82288 21.9849 2.70634 23.5575 4.27891C25.13 5.85148 26.0135 7.98434 26.0135 10.2083C26.0135 12.4322 25.13 14.5651 23.5575 16.1377C21.9849 17.7102 19.852 18.5937 17.6281 18.5937C15.4041 18.5937 13.2713 17.7102 11.6987 16.1377C10.1261 14.5651 9.24267 12.4322 9.24267 10.2083ZM17.3335 20.7972C17.3963 20.7878 17.4596 20.7824 17.5231 20.7812H17.7331C17.7972 20.7812 17.8604 20.7866 17.9227 20.7972L28.5612 22.6683L28.6166 22.68C30.5766 23.132 32.6825 24.376 33.0922 26.7925L33.0981 26.8347L33.2643 28.1137V28.1166C33.6493 31.0464 31.3262 33.177 28.5831 33.177C28.5226 33.1759 28.4622 33.1711 28.4022 33.1625H6.67308C3.92996 33.1625 1.60537 31.0304 1.99183 28.0991L2.15808 26.8318L2.16537 26.7881C2.57371 24.4154 4.69704 23.1014 6.65267 22.677L6.69496 22.6683L17.3335 20.7972Z" fill="#394867"/>
</svg>
